<?xml version="1.0" standalone="no"?>
<!DOCTYPE svg PUBLIC "-//W3C//DTD SVG 1.1//EN" "http://www.w3.org/Graphics/SVG/1.1/DTD/svg11.dtd" >
<svg xmlns="http://www.w3.org/2000/svg">
<metadata>
Created by FontForge 20120731 at Thu Aug 11 16:58:00 2016
 By admin
</metadata>
<defs>
<font id="iconfont" horiz-adv-x="1024" >
  <font-face 
    font-family="iconfont"
    font-weight="500"
    font-stretch="normal"
    units-per-em="1024"
    panose-1="2 0 6 3 0 0 0 0 0 0"
    ascent="896"
    descent="-128"
    x-height="792"
    bbox="-0.0198059 -212 1294 896"
    underline-thickness="50"
    underline-position="-100"
    unicode-range="U+0078-E631"
  />
<missing-glyph horiz-adv-x="374" 
d="M34 0v682h272v-682h-272zM68 34h204v614h-204v-614z" />
    <glyph glyph-name=".notdef" horiz-adv-x="374" 
d="M34 0v682h272v-682h-272zM68 34h204v614h-204v-614z" />
    <glyph glyph-name=".null" horiz-adv-x="0" 
 />
    <glyph glyph-name="nonmarkingreturn" horiz-adv-x="341" 
 />
    <glyph glyph-name="x" unicode="x" horiz-adv-x="1001" 
d="M281 543q-27 -1 -53 -1h-83q-18 0 -36.5 -6t-32.5 -18.5t-23 -32t-9 -45.5v-76h912v41q0 16 -0.5 30t-0.5 18q0 13 -5 29t-17 29.5t-31.5 22.5t-49.5 9h-133v-97h-438v97zM955 310v-52q0 -23 0.5 -52t0.5 -58t-10.5 -47.5t-26 -30t-33 -16t-31.5 -4.5q-14 -1 -29.5 -0.5
t-29.5 0.5h-32l-45 128h-439l-44 -128h-29h-34q-20 0 -45 1q-25 0 -41 9.5t-25.5 23t-13.5 29.5t-4 30v167h911zM163 247q-12 0 -21 -8.5t-9 -21.5t9 -21.5t21 -8.5q13 0 22 8.5t9 21.5t-9 21.5t-22 8.5zM316 123q-8 -26 -14 -48q-5 -19 -10.5 -37t-7.5 -25t-3 -15t1 -14.5
t9.5 -10.5t21.5 -4h37h67h81h80h64h36q23 0 34 12t2 38q-5 13 -9.5 30.5t-9.5 34.5q-5 19 -11 39h-368zM336 498v228q0 11 2.5 23t10 21.5t20.5 15.5t34 6h188q31 0 51.5 -14.5t20.5 -52.5v-227h-327z" />
    <glyph glyph-name="uniE600" unicode="&#xe600;" 
d="M253 700q24 0 41 -16.5t17 -40.5v-44q0 -25 -17 -41.5t-41 -16.5h-46q-24 0 -40.5 16.5t-16.5 41.5v44q0 24 16.5 40.5t40.5 16.5h46zM849 700q23 0 40 -16.5t17 -40.5v-44q0 -25 -17 -41.5t-40 -16.5h-371q-24 0 -41 16.5t-17 41.5v44q0 24 16.5 40.5t41.5 16.5h371z
M253 430q24 0 41 -17t17 -41v-44q0 -24 -17 -41t-41 -17h-46q-24 0 -40.5 17t-16.5 41v44q0 24 16.5 41t40.5 17h46zM849 430q23 0 40 -17t17 -41v-44q0 -24 -17 -41t-40 -17h-371q-25 0 -41.5 17t-16.5 41v44q0 24 16.5 41t41.5 17h371zM253 159q24 0 41 -17t17 -40v-44
q0 -25 -17 -41.5t-41 -16.5h-46q-24 0 -40.5 16.5t-16.5 41.5v44q0 23 16.5 40t40.5 17h46zM849 159q23 0 40 -17t17 -40v-44q0 -25 -17 -41.5t-40 -16.5h-371q-25 0 -41.5 16.5t-16.5 41.5v44q0 23 16.5 40t41.5 17h371zM849 159z" />
    <glyph glyph-name="uniE601" unicode="&#xe601;" 
d="M804 412q19 22 30.5 41t18.5 33t6.5 28t-2 22.5t-11.5 22t-16 19.5l-23 23q-17 18 -25.5 25.5t-26.5 16t-34.5 6t-42.5 -14.5t-57 -37zM566 549l-29 -29l-73 -73l-142 -144l-72 -72q-31 -29 -66.5 -144t-17.5 -133q11 -11 70 1t121.5 37t81.5 46q286 289 288 291l29 29z
" />
    <glyph glyph-name="uniE602" unicode="&#xe602;" 
d="M420 806h180v-664h-180v664zM180 498h180v-356h-180v356zM660 617h180v-475h-180v475zM64 79h896v-117h-896v117zM486 736h114v-594h-114v594zM246 431h114v-289h-114v289zM726 555h114v-413h-114v413zM123 20h837v-58h-837v58z" />
    <glyph glyph-name="uniE603" unicode="&#xe603;" 
d="M880 601h-736q-28 0 -47.5 -19.5t-19.5 -46.5v-491q0 -28 19.5 -47.5t47.5 -19.5h736q28 0 47.5 19.5t19.5 47.5v491q0 27 -19.5 46.5t-47.5 19.5zM896 383q-366 -153 -370 -154q-11 -4 -26 3l-372 152v55l388 -159l380 158v-55z" />
    <glyph glyph-name="uniE604" unicode="&#xe604;" 
d="M512 812q-139 0 -257 -68.5t-186.5 -186.5t-68.5 -257t68.5 -257t186.5 -186.5t257 -68.5t257 68.5t186.5 186.5t68.5 257t-68.5 257t-186.5 186.5t-257 68.5zM274 540q13 9 25 0l249 -189q2 -2 5 -6q20 -18 20 -45q0 -25 -18 -43t-43 -18q-29 0 -48 23l-1 1l-1 1
l-191 247q-6 6 -4.5 14.5t7.5 14.5zM512 -170q-96 0 -183 37t-150 100t-100.5 150.5t-37.5 183t36.5 182t101.5 151.5l29 -29q-60 -60 -93 -138.5t-33 -165.5q0 -117 57.5 -216t156.5 -156.5t216 -57.5t216 57.5t156.5 156.5t57.5 216q0 113 -54.5 210t-148.5 155t-207 64
v-163h-40v163v21v20q11 1 20 1q96 0 183 -37.5t150 -100.5t100.5 -150.5t37.5 -183t-37.5 -183t-100.5 -150.5t-150 -100t-183 -37z" />
    <glyph glyph-name="uniE605" unicode="&#xe605;" 
d="M81 37q-26 0 -45 19t-19 45v391q0 25 19 44.5t45 19.5h145l280 244q21 15 39 11q37 -3 46 -43v-935q-9 -41 -46 -44q-18 -3 -39 12q-22 18 -68 56l-136 114l-76 66h-145v0zM689 188q70 37 70 112.5t-70 111.5q-10 5 -14 14.5t-1.5 19t8.5 17.5t16 10t21 -3
q39 -19 65 -53.5t32.5 -75.5t0 -81.5t-32.5 -75.5t-65 -54q-6 -2 -16 -2q-19 0 -28 18q-6 12 -2 24t16 18zM645 -67q-1 14 6 25t20 13q120 24 194 116q77 92 77 213q0 119 -77 212q-76 94 -194 118q-20 3 -24 20.5t7.5 32t28.5 9.5q138 -27 231 -138q92 -110 92 -254
q0 -146 -92 -255q-91 -109 -231 -136q-2 -2 -6 -2q-26 0 -32 26z" />
    <glyph glyph-name="uniE606" unicode="&#xe606;" 
d="M312 828q-24 31 -62 35.5t-68 -19.5l-74 -57q-30 -23 -34.5 -61.5t18.5 -68.5l29 -36l219 171l-14 18zM95 367q0 -103 47 -192t128 -147l-92 -92l32 -32l99 99q95 -53 203 -53q106 0 199 51l97 -97l32 32l-89 90q82 57 130 147t48 194q0 114 -56 210t-152 151.5
t-209 55.5t-209 -55.5t-152 -151.5t-56 -210zM558 368v-47v0h-46h-185v47h185v277h46v-277zM917 639l14 18q24 31 19.5 69t-34.5 61l-74 57q-30 24 -68 19.5t-62 -35.5l-28 -36l219 -171z" />
    <glyph glyph-name="uniE607" unicode="&#xe607;" 
d="M438 81h116v21q0 162 94 284v55h-258l-12 -82h185q-116 -121 -125 -278zM916 690.5q-7 16.5 -20 29.5q-13 12 -29.5 19.5t-34.5 7.5h-46v90h-91v-90h-364v90h-91v-90h-46q-18 0 -34.5 -7.5t-29.5 -19.5q-12 -13 -19.5 -29.5t-7.5 -35.5v-637q0 -19 7 -35.5t20 -28.5
q13 -13 29.5 -20t34.5 -7h638q18 0 34.5 7t29.5 20q13 12 20 28.5t7 35.5v637q0 19 -7 35.5zM832 18h-638v500h638v-500z" />
    <glyph glyph-name="uniE608" unicode="&#xe608;" 
d="M1002 673q-124 -126 -137 -138q-6 -6 -20 -9t-25 -3h-11q-113 13 -130 29q-7 8 -14 41.5t-10 63.5l-3 30q-3 33 13 50l138 137q0 1 1 2t2.5 4t1.5 5.5t-3 4.5t-9 2q-219 1 -293 -73l-14 -15q-63 -63 -68.5 -150t45.5 -155l-418 -379q-14 -14 -25 -35t-16.5 -48.5t4.5 -59
t37 -58.5t58.5 -37t59 -4.5t48.5 16.5t35 25q274 300 298 326q10 12 13 25.5t0 20.5l-2 8q-49 67 -75 108q-10 16 -6 19t19 -7q116 -75 131 -82h1q68 -52 154.5 -46.5t149.5 68.5l15 15q25 24 40.5 62t21.5 84t8 75.5t2 68.5q0 11 -4 13t-9 -1zM159.5 -38q-29.5 0 -50 20.5
t-20.5 50t20.5 50t50 20.5t50 -20.5t20.5 -50t-20.5 -50t-50 -20.5z" />
    <glyph glyph-name="uniE609" unicode="&#xe609;" 
d="M786 -128q-99 0 -169 70t-70 168.5t70 168.5t168.5 70t168.5 -70t70 -168.5t-70 -168.5t-168 -70zM953 102q0 7 -5 12t-12 5h-124v106q0 7 -5 12.5t-13 5.5h-17q-7 0 -12.5 -5.5t-5.5 -12.5v-141q0 -7 5.5 -12.5t12.5 -5.5h17h142q7 0 12 5.5t5 12.5v18zM518 260h-324
q-22 0 -37.5 -15.5t-15.5 -37.5v-17q0 -22 15.5 -37.5t37.5 -15.5h284q-1 -14 -1 -18q0 -56 22.5 -106.5t62.5 -87.5h-421q-58 0 -99.5 41.5t-41.5 99.5v689q0 58 41.5 99.5t99.5 41.5h406v-106q0 -58 41.5 -99.5t100.5 -41.5h141v-280q-44 15 -89 15q-69 0 -128 -33.5
t-95 -90.5zM671 455q0 22 -15.5 37.5t-37.5 15.5h-424q-22 0 -37.5 -15.5t-15.5 -37.5v-18q0 -22 15.5 -37.5t37.5 -15.5h424q22 0 37.5 15.5t15.5 37.5v18zM795 702h-159q-15 0 -25.5 10t-10.5 25v159h53l177 -159q0 -15 -10.5 -25t-24.5 -10z" />
    <glyph glyph-name="uniE60A" unicode="&#xe60a;" 
d="M580 445h444q0 5 -0.5 14t-4.5 37.5t-11 56.5t-23 66t-37 71.5t-55.5 68.5t-77 61t-103.5 44.5t-132 23.5v-443zM896 327q0 -91 -35.5 -173.5t-95.5 -142.5t-143 -95.5t-174 -35.5t-174 35.5t-143 95.5t-95.5 142.5t-35.5 174t35.5 174t95.5 142.5t143 95.5t174 35.5
v-448h448zM896 327z" />
    <glyph glyph-name="uniE60B" unicode="&#xe60b;" 
d="M508 587q-99 0 -169.5 -70.5t-70.5 -170.5v-295h484v295q0 100 -70.5 170.5t-169.5 70.5h-4zM229 443q3 16 -6 29.5t-24 16.5l-114 23q-16 3 -29.5 -6t-16.5 -25q-1 -7 0 -14q2 -12 10.5 -21t20.5 -11l113 -23q16 -3 29.5 6t16.5 25zM203 705l72 -90q11 -13 27 -14.5
t28.5 8.5t14.5 26t-8 29l-73 90q-10 13 -26 14.5t-29 -8.5q-17 -14 -14 -36q2 -11 8 -19zM515 671q16 0 27.5 11t12.5 27v116q0 16 -11 27.5t-27.5 12t-28 -10.5t-12.5 -27l1 -116q-1 -3 0 -7q2 -14 12.5 -23.5t25.5 -9.5zM696 600q12 -10 28.5 -9t26.5 13l77 87q10 12 9 28
t-13 26.5t-28 9.5t-27 -13l-77 -86q-12 -14 -9 -32q2 -14 13 -24zM980.5 459q-2.5 16 -15.5 25.5t-29 6.5l-114 -17q-16 -2 -25.5 -15t-7 -29t15.5 -26t29 -7l114 17q16 3 25.5 16t7 29zM837 -38q0 -24 -16 -40t-39 -16h-556q-23 0 -39.5 16t-16.5 40q0 23 16.5 39t39.5 16
h556q23 0 39 -16t16 -39z" />
    <glyph glyph-name="uniE60C" unicode="&#xe60c;" 
d="M316 896q-26 0 -45 -18.5t-19 -45.5v-64h491q27 0 45.5 -18.5t18.5 -45.5v-661h64q27 0 45.5 18.5t18.5 45.5v725q0 27 -18.5 45.5t-45.5 18.5h-555zM708 725h-555q-27 0 -45.5 -18.5t-18.5 -45.5v-725q0 -27 18.5 -45.5t45.5 -18.5h555q26 0 45 18.5t19 45.5v725
q0 27 -19 45.5t-45 18.5zM576 249q13 0 21.5 -8.5t8.5 -21t-8.5 -20.5t-21.5 -8h-128v-79q0 -11 -9 -18.5t-21 -7.5q-13 0 -21 7.5t-8 18.5v79h-102q-13 0 -22.5 8t-9.5 20.5t9.5 21t22.5 8.5h102v58h-102q-13 0 -22.5 8t-9.5 20t9.5 21t22.5 9h84l-93 100q-7 7 -4.5 18
t12 19t20.5 9t17 -6l96 -105l93 105q6 7 17 6t20.5 -9t12 -19t-3.5 -18l-93 -100h109q13 0 22.5 -9t9.5 -21t-9.5 -20t-22.5 -8h-126v-58h128z" />
    <glyph glyph-name="uniE60D" unicode="&#xe60d;" 
d="M643 -15l-5 2l-7 4q-24 11 -39 33t-15 48v36q0 38 27 64q11 12 15 15q3 2 9 4t11 3l4 1q-7 26 2 52t30 42q-75 47 -164 47h-184q-129 0 -220 -91t-91 -220v-19q0 -32 21 -51.5t72.5 -27t92 -9t125.5 -1.5h184q97 0 140 2q-17 31 -8 66zM409.5 360q101.5 0 174 72.5
t72.5 174.5t-72.5 174.5t-174 72.5t-174 -72.5t-72.5 -174.5t72.5 -174.5t174 -72.5zM982 138q-19 1 -31.5 14.5t-12.5 31.5q0 12 5 22t1.5 21t-13.5 17l-15 9l-16 9q-10 5 -21 2.5t-17 -11.5q-14 -21 -39.5 -21t-39.5 21q-6 9 -17 11.5t-21 -2.5l-17 -9l-15 -9
q-10 -5 -13.5 -16.5t1.5 -21.5q6 -10 6 -21q0 -19 -13 -32.5t-32 -14.5q-11 -1 -19 -9.5t-8 -20.5v-35q0 -12 8 -20.5t19 -9.5h1q18 -1 31 -14.5t13 -32.5q0 -12 -6 -21q-5 -10 -1.5 -21.5t13.5 -16.5l31 -19q10 -5 21.5 -2.5t17.5 11.5q13 21 39 21q25 0 39 -21
q7 -9 17.5 -12t21.5 3l31 19q9 5 12.5 16t-1.5 21v1v1h-1l-1 1q-3 9 -3 18q0 19 12.5 32.5t30.5 14.5l1 1q12 1 19.5 9t7.5 20v37q1 11 -7 19.5t-19 9.5zM890 65q-4 -11 -13 -22q-17 -20 -42 -24q-8 -2 -13 -2t-13 2q-25 4 -43 24q-8 9 -13 22q-4 13 -4 25q0 11 4 25
q5 13 13 22q16 20 43 25q8 1 13 1t13 -1q25 -5 43 -25q9 -11 13 -22t4 -25q0 -12 -5 -25z" />
    <glyph glyph-name="uniE60E" unicode="&#xe60e;" 
d="M367 450q-111 0 -174.5 -64.5t-75.5 -165.5q-1 -10 -3 -29q-10 -43 -6.5 -79.5t22 -63.5t77.5 -43t159.5 -16t159.5 16t77.5 43t22 63.5t-6.5 79.5q-2 19 -3 29q-12 101 -75.5 165.5t-173.5 64.5zM905 249q-11 88 -67.5 144.5t-154.5 56.5q-56 0 -103 -22q79 -76 93 -202
l4 -28q6 -32 6 -75.5t-13 -75.5h13q90 0 142.5 13.5t68.5 37.5t19.5 56t-5.5 69q-2 17 -3 26zM366 508q60 0 102.5 42t42.5 102t-42.5 102t-102 42t-101.5 -42t-42 -102t42 -102t101 -42zM683 508q48 0 82 33.5t34 81.5t-34 81.5t-81.5 33.5t-81.5 -33.5t-34 -81.5t34 -81.5
t81 -33.5zM683 508z" />
    <glyph glyph-name="uniE60F" unicode="&#xe60f;" 
d="M829 -58h-636q-26 0 -45 17t-19 42v445q0 25 19 42.5t45 17.5h636q27 0 45.5 -17.5t18.5 -42.5v-445q0 -25 -18.5 -42t-45.5 -17zM511 357q-39 0 -67 -26t-28 -63q0 -24 13 -44.5t34 -32.5v-84q0 -20 14 -33.5t34 -13.5t34 13.5t14 33.5v84q22 12 35 32.5t13 44.5
q0 37 -28 63t-68 26zM511 743q-79 0 -135 -52t-56 -126h-95q0 111 84 189t202.5 78t202 -78t83.5 -189h-95q0 74 -56 126t-135 52zM511 743z" />
    <glyph glyph-name="uniE610" unicode="&#xe610;" horiz-adv-x="1025" 
d="M480 316h211q13 0 22 9t9 22v52q0 13 -9 22t-22 9h-128v151q0 13 -9.5 22.5t-22.5 9.5h-51q-13 0 -22.5 -9.5t-9.5 -22.5v-234q0 -13 9.5 -22t22.5 -9zM570 896v-162q281 -32 281 -344q0 -55 -10 -105l152 -87q24 88 24 197q-4 473 -447 501zM155 390q0 318 293 345v161
q-451 -31 -448 -508q1 -102 23 -187l142 82q-10 50 -10 107zM503 43q-208 0 -292 126l-142 -82q120 -205 443 -202q316 2 434 199l-149 86q-84 -127 -294 -127z" />
    <glyph glyph-name="uniE611" unicode="&#xe611;" 
d="M606 808h-16h-7v8v1v2q0 29 -18 49t-43.5 20t-44 -20t-18.5 -49v-2l1 -1v-8h-7h-17q-31 0 -53.5 -25t-22.5 -59.5t22.5 -59.5t53.5 -25h170q32 0 54 25t22 59.5t-22 59.5t-54 25zM521.5 802q-12.5 0 -21.5 10t-9 24t9 24t21.5 10t21.5 -10t9 -24t-9 -24t-21.5 -10z
M813 743h-67q2 -10 2 -19q0 -25 -6.5 -46.5t-21 -43t-44 -34t-70.5 -13.5h-170q-39 1 -68 13.5t-44 33.5t-22 43.5t-7 46.5q0 9 2 19h-67q-22 0 -37 -16.5t-15 -40.5v-749q0 -24 15 -40.5t37 -16.5h583q21 0 36 16.5t15 40.5v749q0 24 -15 40.5t-36 16.5zM769 3h-495v502
h495v-502zM677 184h-86v-86h-130v86h-86v129h86v87h130v-87h86v-129z" />
    <glyph glyph-name="uniE612" unicode="&#xe612;" 
d="M67 357l295 -143l435 403l-368 -435l364 -176l164 821zM418 -64l98 138l-196 81z" />
    <glyph glyph-name="uniE613" unicode="&#xe613;" 
d="M251 700q-18 0 -27.5 6.5t-12.5 15.5q-6 11 -6 24v85q0 25 10 37t22 19q14 6 31 6h502q16 0 31 -6q11 -7 21 -19t10 -37v-85q0 -13 -5 -24q-4 -9 -12.5 -15.5t-26.5 -6.5h-537zM926 -23q0 -29 -10 -52q-9 -20 -28 -35.5t-54 -15.5h-630q-36 0 -54.5 15.5t-27.5 35.5
q-10 23 -11 52v485q0 42 15.5 60.5t28.5 31.5l92 85h561l74 -85q13 -13 28.5 -31.5t15.5 -60.5v-485zM724 311h-136v138h-139v-138h-136v-139h136v-136h139v136h136v139z" />
    <glyph glyph-name="uniE614" unicode="&#xe614;" horiz-adv-x="1069" 
d="M746 706q-11 0 -19 7.5t-13 18t-7.5 21t-2.5 17.5v126h2q9 0 17.5 -2t20 -9.5t28.5 -21.5t42 -36q28 -25 44.5 -42t25 -28.5t10.5 -20t2 -14.5v-16h-150zM1064 225q3 -9 4 -21t-10 -23q-5 -5 -9.5 -10t-7.5 -8q-4 -4 -7 -6l-87 86q6 5 14 12t13 11q12 12 26.5 10.5
t23.5 -6.5q10 -6 22 -18.5t18 -26.5zM703 130q23 0 38 12l-198 -207h-282q-20 0 -43 11.5t-43 30t-33 42.5t-13 49v696q0 22 9.5 45.5t26.5 42t38.5 31.5t44.5 13h392v-128q0 -19 6 -41.5t19 -41.5t33 -31.5t49 -12.5h149v-339l-140 -145q11 16 11 36q0 26 -18.5 45
t-45.5 19h-383q-27 0 -45 -19t-18 -45.5t18 -44.5t45 -18h383zM320 513q-27 0 -45 -19t-18 -45.5t18 -45t45 -18.5h383q27 0 45.5 18.5t18.5 45t-18.5 45.5t-45.5 19h-383zM705 1l13 13l26 26q15 15 33.5 34t36.5 37q44 44 100 98l85 -86l-99 -99l-36 -37l-34 -33
q-14 -15 -24 -25l-11 -11q-5 -4 -11 -8.5t-12.5 -7.5t-19 -8t-26 -9t-25.5 -7t-18 -4q-13 -2 -17 3t-2 17q1 7 4 19t8 25q4 13 7 24q4 11 6 15q6 14 16 24z" />
    <glyph glyph-name="uniE615" unicode="&#xe615;" horiz-adv-x="1619" 
d="M1183 650h-359l-30 43q-4 7 -12 22t-10.5 20.5t-9 15t-11 13t-11.5 8t-14.5 6t-18.5 1.5h-302q-36 0 -61.5 -25t-25.5 -61v-649q0 -36 25.5 -61t61.5 -25h778q36 0 61.5 25t25.5 61v519q0 36 -25.5 61.5t-61.5 25.5zM1015 267h-188v-188h-66v188h-188v65h188v188h66v-188
h188v-65z" />
    <glyph glyph-name="uniE616" unicode="&#xe616;" horiz-adv-x="1595" 
d="M467 564h703v62q0 25 -18.5 43.5t-44.5 18.5h-374v57q0 26 -18.5 44t-44.5 18h-312q-26 0 -44 -18t-18 -44v-743l109 500q0 26 18 44t44 18zM1232 518h-718q-26 0 -44 -18.5t-18 -44.5l-110 -515h781q26 0 44 18.5t18 43.5l109 453q0 26 -18 44.5t-44 18.5zM1063 185
h-450v81h450v-81z" />
    <glyph glyph-name="uniE617" unicode="&#xe617;" 
d="M747 850q11 9 24.5 8t23 -10.5t8.5 -22.5t-11 -22l-481 -417q-10 -8 -10 -18.5t10 -18.5l481 -401q10 -9 11 -22t-8 -23t-23 -11t-24 8l-481 402q-32 26 -32 65t31 66z" />
    <glyph glyph-name="uniE618" unicode="&#xe618;" 
d="M316 850q-9 9 -22 8t-22 -10.5t-8.5 -22.5t10.5 -22l460 -417q9 -8 9 -18.5t-10 -18.5l-459 -402q-10 -8 -10.5 -21t8 -23t21.5 -11t23 8l459 401q31 27 31 66t-30 66z" />
    <glyph glyph-name="uniE619" unicode="&#xe619;" 
d="M329 457q30 0 51.5 21.5t21.5 52t-21.5 51.5t-51.5 21t-51.5 -21t-21.5 -51.5t21.5 -52t51.5 -21.5zM658 503l-216 -306l-113 156l-183 -262h732zM951 805h-878q-15 0 -25.5 -11t-10.5 -26v-768q0 -15 10.5 -26t25.5 -11h878q15 0 25.5 11t10.5 26v768q0 15 -10.5 26
t-25.5 11zM914 37h-804v694h804v-694z" />
    <glyph glyph-name="uniE61A" unicode="&#xe61a;" 
d="M701 451h-61v61h61v-61zM701 382h-61v-61h61v61zM701 256h-61v-61h61v61zM701 125h-61v-61h61v61zM832 382h-61v-61h61v61zM832 256h-61v-61h61v61zM832 125h-61v-61h61v61zM67 654v-545l443 -44v636zM410 232q-13 -8 -21 -6q-9 3 -16 13l-85 118l-84 -118
q-15 -21 -38 -6q-9 5 -11.5 15.5t5.5 21.5l95 133l-83 116q-5 8 -2.5 18.5t11.5 16.5q12 8 20.5 7.5t16.5 -11.5l71 -99l66 93q9 12 19 16t22.5 -3.5t13.5 -17.5t-5 -19l-83 -116l99 -140q5 -7 3.5 -15.5t-14.5 -16.5zM774 830h-618q-12 0 -20 -8.5t-8 -19.5v-86l64 6v48
h512v-194h192v-578h-704v33v10l-64 7v-84q0 -12 8 -20t20 -8h776q12 0 20 8t8 20v676zM766 638v124l130 -124h-130z" />
    <glyph glyph-name="uniE61B" unicode="&#xe61b;" 
d="M212 169q51 -51 117 -79q68 -29 143 -29t143 29q39 16 72 41l157 -157q10 -10 24 -10t24 10t10 24.5t-10 24.5l-153 153q46 48 72 110q29 68 29 143t-29 143q-28 66 -79 117t-117 79q-68 29 -143 29t-143 -29q-66 -28 -117 -79t-79 -117q-29 -68 -29 -143t29 -143
q28 -66 79 -117zM260.5 640.5q87.5 87.5 211.5 87.5t212 -87.5t88 -211.5t-88 -211.5t-212 -87.5t-211.5 87.5t-87.5 211.5t87.5 211.5z" />
    <glyph glyph-name="uniE61C" unicode="&#xe61c;" 
d="M777 756q-162 26 -262 -108q-3 4 -7 10.5t-20.5 24.5t-35.5 32.5t-51.5 28.5t-68.5 19q-49 7 -97 -10t-87 -52t-61.5 -93.5t-17.5 -129.5q2 -50 28 -106h185l49 215l105 -260l73 196l76 -151h138q17 29 50 29q24 0 41.5 -17t17.5 -41.5t-17.5 -42t-41.5 -17.5
q-32 0 -49 27h-172l-32 74l-68 -201l-111 245l-40 -185l-15 68l-154 1q53 -82 139 -161q32 -29 94 -72.5t104 -70t46 -28.5q165 102 225 155q203 184 217 343q5 57 -8.5 106t-36 78.5t-50.5 51t-49 31t-36 11.5z" />
    <glyph glyph-name="uniE61D" unicode="&#xe61d;" 
d="M623 816h-46v20q0 23 -16.5 39t-39 16t-39 -16t-16.5 -39v-20h-46q-76 0 -130 -48t-54 -116v-500q0 -67 54 -115t130 -48h5l18 -57h52v-60h53v60h52l18 57h5q76 0 130 48t54 115v500q0 68 -54 116t-130 48zM751 152q0 -44 -37.5 -76t-90.5 -32h-203q-53 0 -90.5 32
t-37.5 76v500q0 45 37.5 77t90.5 32h203q53 0 90.5 -32t37.5 -77v-500zM351 173q0 -31 17 -51.5t52 -20.5h203q35 0 52.5 20.5t17.5 51.5v357h-342v-357zM522 447q75 -133 75 -174q0 -31 -22 -53t-53.5 -22t-53.5 22t-22 53q0 41 76 174z" />
    <glyph glyph-name="uniE61E" unicode="&#xe61e;" 
d="M634 90q0 -48 -34 -82t-82 -34t-82.5 34t-34.5 82q0 31 16 58t43 42l9 6l7 4v8v11v193h83v-193v-11v-8l7 -4l10 -6q27 -15 42.5 -42t15.5 -58zM735 95q0 -96 -56.5 -157.5t-160.5 -61.5q-91 0 -153.5 56t-62.5 153q0 127 100 192v501q0 50 32 81t84 31q54 0 85 -30.5
t28 -82.5v-501q104 -64 104 -181zM685 92q0 45 -22.5 83.5t-60.5 61.5l-13 7v15v276h-62v34h62v47h-62v34h62v48h-62v34h62v45q0 29 -20.5 49.5t-50 20.5t-50 -20.5t-20.5 -49.5v-518v-15l-13 -7q-39 -23 -61 -61.5t-22 -83.5q0 -69 48.5 -117.5t117.5 -48.5t118 48.5
t49 117.5z" />
    <glyph glyph-name="uniE61F" unicode="&#xe61f;" 
d="M474 734q0 -16 -11.5 -27.5t-27.5 -11.5t-27 11.5t-11 27.5t11 27t27 11t27.5 -11t11.5 -27zM597.5 832q-24.5 0 -42 -17.5t-17.5 -42t17.5 -42t42 -17.5t42 17.5t17.5 42t-17.5 42t-42 17.5zM556 646q0 -13 -9 -22t-21.5 -9t-21.5 9t-9 22t9 22t21.5 9t21.5 -9t9 -22z
M474 894q-13 0 -22 -9.5t-9 -22t9 -21.5t22 -9t22 9t9 21.5t-9 22t-22 9.5zM814 -8l-187 371v132h47v83h-330v-83h47v-132l-186 -371q-29 -49 -8.5 -84.5t77.5 -35.5h470q58 0 78 35.5t-8 84.5zM773.5 -64.5q-4.5 -7.5 -29.5 -7.5h-470q-25 0 -29.5 7.5t8.5 28.5l1 2l1 1
l186 371l6 12v13v126h125v-126v-13l6 -12l186 -371l1 -1l1 -2q12 -21 7.5 -28.5zM509 224q0 -16 -11 -27.5t-27 -11.5t-27.5 11.5t-11.5 27.5t11.5 27.5t27.5 11.5t27 -11.5t11 -27.5zM504 459q-9 0 -15.5 -6t-6.5 -15t6.5 -15.5t15.5 -6.5t15.5 6.5t6.5 15.5t-6.5 15
t-15.5 6zM525.5 347q-8.5 0 -15 -6.5t-6.5 -15.5t6.5 -15t15 -6t15 6t6.5 15t-6.5 15.5t-15 6.5zM615 145h-216l-91 -183h402zM410.5 -17q-8.5 0 -15 6t-6.5 15t6.5 15.5t15 6.5t15 -6.5t6.5 -15.5t-6.5 -15t-15 -6zM443 69q-9 0 -15.5 6t-6.5 15t6.5 15.5t15.5 6.5
t15.5 -6.5t6.5 -15.5t-6.5 -15t-15.5 -6zM509 4q-9 0 -15 6.5t-6 15.5t6 15t15 6t15.5 -6t6.5 -15t-6.5 -15.5t-15.5 -6.5z" />
    <glyph glyph-name="uniE620" unicode="&#xe620;" 
d="M658 262v9q26 19 45.5 44t31 55.5t18.5 55.5t10 63t3.5 59t0.5 60v17q0 125 -68.5 195.5t-189.5 70.5h-8q-116 0 -178 -68.5t-62 -197.5q0 -31 1 -50.5t4 -57.5t11 -67.5t21.5 -63.5t36 -63.5t53.5 -51.5v-7q-77 -12 -139.5 -35t-104 -62t-41.5 -87q0 -104 100 -155
t302 -51q100 0 176.5 12.5t121.5 32.5t73 48t38 55t10 58q0 38 -27 70.5t-70.5 54t-85 35.5t-83.5 22z" />
    <glyph glyph-name="uniE621" unicode="&#xe621;" 
d="M941 688q-26 26 -62 26h-165q-8 70 -58 120q-60 59 -144 59t-144 -59q-50 -50 -58 -120h-165v0q-36 0 -62 -26t-26 -62v-666q0 -37 26 -62.5t62 -25.5h734q36 0 62 26t26 62v666q0 36 -26 62zM838 391q15 -4 6 -24q-9 -19 -26 -16q-12 2 -9 21q3 23 24 20q2 0 5 -1z
M805 425q17 -5 9 -28q-9 -24 -30 -23h-4q-14 3 -12 26q3 24 23 26q7 1 14 -1zM717 382q-17 4 -15 31q3 32 27 39q11 4 24 0q21 -7 10 -36q-10 -29 -34 -34q-6 -1 -12 0zM402 799.5q46 45.5 110 45.5t110 -45v0q46 -46 46 -110.5t-46 -110t-110 -45.5t-110 45.5t-46 110
t46 110zM283 452q36 10 48 -25q9 -27 -4 -41q-4 -3 -8 -4q-25 -4 -42 25q-16 28 0 41q3 3 6 4zM231 425q27 8 36 -18q6 -22 -6 -31q-2 -1 -5 -2q-21 -4 -32 20q-11 23 5 30q1 1 2 1zM198 391q23 7 29 -17q3 -19 -9 -23q-18 -3 -27 18q-7 18 7 22zM169 293q-13 -3 -19 13
q-6 14 5 17q17 5 21 -13q3 -15 -7 -17zM188 324q-17 -3 -24 16q-5 16 6 19q20 6 25 -14q3 -17 -7 -21zM424 -1q-2 -35 -33 -48.5t-56 4.5q-16 11 -27.5 31t-25 57.5t-17.5 47.5q-11 25 -49 84q-44 69 4 122q46 52 98 57q33 3 50 -18.5t14 -58.5q-1 -14 -10 -50.5t-5 -59.5
q3 -21 18.5 -48.5t28 -57.5t10.5 -62zM346 523q-60 60 -68 143h32v0q8 -70 58 -120q60 -60 144 -60t144 60q50 50 58 120h32q-8 -83 -68 -143q-69 -69 -166 -69t-166 69zM820 175q-38 -59 -49 -84q-5 -13 -14.5 -38t-15.5 -40.5t-16.5 -32t-23.5 -25.5q-25 -18 -56 -4.5
t-33 48.5q-2 32 10.5 62t28 57.5t18.5 48.5q4 23 -5 59.5t-10 50.5q-3 37 14 58.5t50 18.5q52 -5 98 -57q48 -53 4 -122zM848 324q-10 3 -8 19q6 21 26 16q13 -4 5 -21q-8 -16 -23 -14zM867 293q-10 2 -7 16q3 19 21 14q12 -4 4 -19q-7 -13 -18 -11zM512 642q13 0 22.5 9
t9.5 23q0 8 -4 16l44 76q3 6 1.5 12.5t-7.5 9.5t-12 1.5t-10 -7.5l-44 -76v0q-13 0 -22.5 -9.5t-9.5 -23t9.5 -22.5t22.5 -9z" />
    <glyph glyph-name="uniE622" unicode="&#xe622;" 
d="M851 -86v-40h-199v40h77v941h-79v40h199v-40h-80v-941h82zM596 554q0 45 -31 83.5t-73 38.5h-1h-55q-8 0 -33.5 -7.5t-44 -7.5t-43 7.5t-33.5 7.5h-55h-1q-43 0 -73.5 -30.5t-30.5 -73.5v-20v17v-318q0 -10 6.5 -17t16.5 -7h36q10 0 16.5 7t6.5 17v250h26v-248v-18v-338
q0 -10 7 -17t16 -7h70q10 0 16.5 7t6.5 17v314h26v-314q0 -10 6.5 -17t16.5 -7h69q10 0 17 7t7 17v338v18v248h25v-250q0 -10 7 -17t16 -7h37q9 0 16 7t7 17v318v1v-16v0zM251 785.5q0 44.5 31.5 76t76 31.5t76 -31.5t31.5 -76t-31.5 -76t-76 -31.5t-76 31.5t-31.5 76z" />
    <glyph glyph-name="uniE623" unicode="&#xe623;" 
d="M196 -73h-2h2zM199 -73h-3h3zM510.5 851q-129.5 0 -239 -57t-173.5 -155.5t-64 -213.5q0 -117 65.5 -215.5t174.5 -155.5q-2 -18 -5 -35.5t-11 -39.5t-23 -36.5t-36 -15.5q17 1 38 4t56.5 10.5t67.5 24.5t50 41q49 -9 100 -9q129 0 239 57t173.5 155.5t63.5 214
t-63.5 214t-173.5 155.5t-239.5 57zM169 419q0 27 21 46t51 19t51.5 -19t21.5 -46t-21.5 -46t-51.5 -19t-51 19t-21 46zM505 354q-30 0 -51 19t-21 46t21 46t51 19t51.5 -19t21.5 -46t-21.5 -46t-51.5 -19zM764 360q-30 0 -51 19t-21 45.5t21 45.5t51 19t51.5 -19
t21.5 -45.5t-21.5 -45.5t-51.5 -19z" />
    <glyph glyph-name="uniE624" unicode="&#xe624;" 
d="M782 834h-540q-74 0 -127 -53t-53 -127v-540q0 -74 53 -127t127 -53h540q74 0 127 53t53 127v540q0 74 -53 127t-127 53zM568 388v-299h-112v299h-106l162 291l162 -291h-106z" />
    <glyph glyph-name="uniE625" unicode="&#xe625;" 
d="M317 604q0 81 57.5 138.5t138.5 57.5t138.5 -57.5t57.5 -138.5t-57.5 -138.5t-138.5 -57.5t-138.5 57.5t-57.5 138.5zM944 159v-207h-139v76h-46v-76h-476v76h-46v-76h-158q-1 209 0 212q3 77 59 132t132 55h103q16 0 61 -13.5t79 -13.5t80.5 13.5t59.5 13.5h100
q79 0 135 -56.5t56 -135.5zM744 182h-62v62h-61v-62h-62v-61h62v-62h61v62h62v61z" />
    <glyph glyph-name="uniE626" unicode="&#xe626;" 
d="M529 858q-96 0 -177.5 -47.5t-128.5 -129t-47 -177.5q0 -54 38 -137.5t84.5 -155t107.5 -151t85 -108t38 -44.5q14 16 38 44.5t85 108t107.5 151t85 155t38.5 137.5q0 96 -47.5 177.5t-129 129t-177.5 47.5zM526.5 263q-101.5 0 -173.5 72t-72 174t72 174t173.5 72
t173.5 -72t72 -174t-72 -174t-173.5 -72zM660 453h-75v-75h-112v75h-74v111h74v75h112v-75h75v-111z" />
    <glyph glyph-name="uniE627" unicode="&#xe627;" 
d="M794 386q18 18 19 45t-17 45t-45 17.5t-45 -18.5l-288 -287l-99 98q-19 18 -45.5 18.5t-45 -17.5t-19 -43t18.5 -44l142 -142q18 -18 48 -17.5t48 18.5l-4 -4zM513 748q93 0 174 -35.5t142 -96t96 -142.5q35 -81 35 -174t-35 -174q-35 -82 -96 -143t-142 -96t-174 -35
t-175 35t-142.5 96t-95.5 143q-36 81 -36 174t36 174q35 82 96 143q60 61 142 96t175 35z" />
    <glyph glyph-name="uniE628" unicode="&#xe628;" 
d="M512 -147q-91 0 -174 35.5t-143 95t-95.5 142.5t-35.5 174t35.5 174t95.5 143t143 95.5t174 35.5t174 -35.5t142.5 -95.5t95 -143t35.5 -174t-35.5 -174t-95 -142.5t-142.5 -95t-174 -35.5zM720 510q-16 16 -38.5 16t-37.5 -16l-133 -133l-132 131q-15 16 -37.5 16
t-37.5 -16q-16 -16 -16 -38t16 -37l131 -132l-133 -133q-16 -15 -16 -37.5t16 -38.5q16 -15 38 -15t38 15l133 133l133 -133q16 -15 38 -15t38 15q15 16 15 38t-15 38l-133 133l133 133q15 16 15 38t-15 38z" />
    <glyph glyph-name="uniE629" unicode="&#xe629;" 
d="M368 317h295v-60h-295v60zM366 220h295v-59h-295v59zM956 531q0 13 -9 22t-21 9h-146v94v60h-58h-424h-58v-154h-147q-13 0 -22 -9t-9 -22v-103v-7v-270h87h42h49v-70h2l198 -188h1v-1h281h13h45v259h84h92v267v3v110zM859 527q15 0 25.5 -10.5t10.5 -25t-10.5 -25
t-25.5 -10.5t-25.5 10.5t-10.5 25t10.5 25t25.5 10.5zM298 656h424v-94h-424v94zM722 328v-388h-246v175h-178v213h-58v-107h-49v170h637v-170h-48v107h-58z" />
    <glyph glyph-name="uniE62A" unicode="&#xe62a;" 
d="M949 483l-52 -51l-140 140l51 50q12 12 28 13t26 -9l92 -90q9 -10 7.5 -26t-12.5 -27v0zM732 548l142 -138l-337 -332q-5 -5 -12 -7q-1 0 -2 -1l-176 -54q-9 -2 -13 2q-6 5 -3 13l56 173q0 1 1 2q2 11 8 14l65 59h-214q-7 0 -12 5.5t-5 12.5q0 6 5 12t12 6h247zM494 89
l-87 86l-23 -72l36 -37zM728 494q-3 3 -9 3t-9 -3l-264 -259q-4 -3 -4 -8.5t4 -9.5q3 -3 9 -3t9 3l263 259q9 7 1 18v0zM141 -11q-18 0 -18 12v704q0 5 0.5 8t3.5 4.5t5 1.5h6h7h62v-24q0 -6 6 -11t14 -5q7 0 13.5 5t6.5 11v24h91v-24q0 -6 6 -11t14 -5q7 0 13.5 5t6.5 11
v24h84v-24q0 -6 6 -11t14 -5q7 0 13.5 5t6.5 11v24h83v-24q0 -6 6.5 -11t13.5 -5t13.5 5t6.5 11v24h71q14 0 14 -14v-115l51 50v65q0 28 -18.5 46t-46.5 18h-72v43q0 7 -6 12t-14 5q-7 0 -13.5 -5t-6.5 -12v-43h-83v43q0 7 -6.5 12t-13.5 5t-13.5 -5t-6.5 -12v-43h-84v43
q0 7 -6 12t-14 5q-7 0 -13.5 -5t-6.5 -12v-43h-91v43q0 7 -6.5 12t-14.5 5q-7 0 -13.5 -5t-6.5 -12v-43h-60q-36 0 -55 -17.5t-19 -46.5v-703q0 -27 21 -45t50 -18h553q28 0 46.5 18t18.5 45v243l-51 -50v-194q0 -12 -14 -12h-554zM579 578h-333q-7 0 -11.5 -6t-4.5 -13
t4.5 -12.5t11.5 -5.5h333q6 0 10.5 6t4.5 12.5t-4.5 12.5t-10.5 6v0zM579 450h-333q-7 0 -11.5 -6t-4.5 -13t4.5 -13t11.5 -6h333q6 0 10.5 6.5t4.5 13t-4.5 12.5t-10.5 6v0zM579 450z" />
    <glyph glyph-name="uniE62B" unicode="&#xe62b;" 
d="M512 830q91 0 173.5 -35.5t142 -95t95 -142t35.5 -173.5t-35.5 -173.5t-95 -142t-142 -95t-173.5 -35.5t-173.5 35.5t-142 95t-95 142t-35.5 173.5t35.5 173.5t95 142t142 95t173.5 35.5v0zM545 194v384q0 2 -1 4t-5 6.5t-8 7t-12 0.5t-16 -9l-103 -93h-113q-6 0 -9 -1
t-7 -7.5t-4 -19.5v-165q0 -10 6 -16.5t15 -6.5h106l110 -95q12 -13 26.5 -12t14.5 23v0zM757 372q2 50 -19.5 96t-61.5 81q-13 8 -27 -4t-6 -23q73 -62 69 -149q-4 -78 -71 -133q-10 -12 6 -23.5t25 -4.5q80 66 85 160v0zM623 377q-3 -49 -44 -84q-9 -12 5 -22.5t26 -2.5
q51 45 55 107q3 71 -55 122q-8 6 -18.5 2t-14 -11.5t1.5 -14.5q46 -40 44 -96v0z" />
    <glyph glyph-name="uniE62C" unicode="&#xe62c;" 
d="M511.5 705q-55.5 0 -113.5 -20.5t-105 -52.5t-91.5 -71t-77.5 -78t-58 -71.5t-38 -52.5l-13 -20q5 -8 13.5 -21.5t37 -51.5t59 -73t76.5 -77.5t92.5 -73t104.5 -51t113.5 -20.5t113.5 20t105 52.5t91.5 72t77.5 78.5t58 71.5t38 52.5l13 21q-5 7 -13.5 20.5t-37 51.5
t-59 72.5t-76.5 76.5t-92.5 72.5t-104.5 51.5t-113.5 21zM511.5 138q-82.5 0 -140.5 58.5t-58 142t58 142t140.5 58.5t140.5 -58.5t58 -142t-58 -142t-140.5 -58.5zM511.5 472q-54.5 0 -93.5 -39t-39 -94.5t39 -94.5t93.5 -39t93.5 39t39 94.5t-39 94.5t-93.5 39zM545 343
q-29 0 -29 29t29 29t29 -29t-29 -29z" />
    <glyph glyph-name="uniE62D" unicode="&#xe62d;" 
d="M512 -128q-139 0 -257 68.5t-186.5 186.5t-68.5 257t68.5 257t186.5 186.5t257 68.5t257 -68.5t186.5 -186.5t68.5 -257t-68.5 -257t-186.5 -186.5t-257 -68.5zM560 656q0 20 -14 34t-34 14t-34 -14t-14 -34v-352q0 -20 14 -34t34 -14t34 14t14 34v352zM512 160
q-20 0 -34 -14t-14 -34t14 -34t34 -14t34 14t14 34t-14 34t-34 14z" />
    <glyph glyph-name="uniE62E" unicode="&#xe62e;" 
d="M869 275l-40 -148h-1l-44 -161l-283 75l-3 -1l-298 78v2l-79 21l15 56l1 -1l146 542h-1l16 57l520 -138v2l144 -38l-94 -344zM888 579l-547 145l-109 -399l548 -145zM398 462l36 -61l94 88l48 -83l128 110l31 -256l-420 111zM425 523q-18 4 -27.5 20t-4.5 34t21 27t34 4
t27 -20.5t4.5 -33.5t-20.5 -27t-34 -4zM683 730l-12 -3l-115 30l170 45l26 -97l-67 18zM136 585l37 -139l-31 -114l-80 295l173 45l-18 -66zM240 -28l-31 114l231 -62z" />
    <glyph glyph-name="uniE62F" unicode="&#xe62f;" 
d="M510 208v330q0 17 -16 29.5t-38.5 12.5t-39 -12.5t-16.5 -29.5v-330q-36 -16 -58.5 -49.5t-22.5 -74.5q0 -57 40 -96.5t96.5 -39.5t96 39.5t39.5 96.5q0 41 -22 74.5t-59 49.5zM638 278v359q0 64 -57 107q-53 40 -126 40t-125 -40q-57 -43 -57 -107v-359
q-84 -79 -84 -194q0 -111 78 -189t188.5 -78t188.5 78t78 189q0 115 -84 194zM455.5 -111q-80.5 0 -137.5 57t-57 138q0 43 18.5 82.5t51.5 67.5l13 11v392q0 30 33 52.5t78.5 22.5t78.5 -22.5t33 -52.5v-392l13 -11q33 -28 51.5 -67.5t18.5 -82.5q0 -81 -57 -138
t-137.5 -57zM673 599h43q8 0 13 5t5 12.5t-5 12.5t-13 5h-43q-7 0 -12 -5t-5 -12.5t5 -12.5t12 -5zM716 580h-43q-7 0 -12 -5.5t-5 -12.5t5 -12.5t12 -5.5h43q8 0 13 5.5t5 12.5t-5 12.5t-13 5.5zM716 526h-43q-7 0 -12 -5.5t-5 -12.5t5 -12.5t12 -5.5h43q8 0 13 5.5t5 12.5
t-5 12.5t-13 5.5zM716 471h-43q-7 0 -12 -5t-5 -12.5t5 -12.5t12 -5h43q8 0 13 5t5 12.5t-5 12.5t-13 5zM716 417h-43q-7 0 -12 -5t-5 -12.5t5 -12.5t12 -5h43q8 0 13 5t5 12.5t-5 12.5t-13 5zM716 363h-43q-7 0 -12 -5t-5 -12.5t5 -12.5t12 -5h43q8 0 13 5t5 12.5t-5 12.5
t-13 5z" />
    <glyph glyph-name="uniE630" unicode="&#xe630;" 
d="M64 896h320q29 0 46.5 -17.5t17.5 -46.5v-320q0 -29 -17.5 -46.5t-46.5 -17.5h-320q-29 0 -46.5 17.5t-17.5 46.5v320q0 29 17.5 46.5t46.5 17.5zM640 896h320q29 0 46.5 -17.5t17.5 -46.5v-320q0 -29 -17.5 -46.5t-46.5 -17.5h-320q-29 0 -46.5 17.5t-17.5 46.5v320
q0 29 17.5 46.5t46.5 17.5zM64 320h320q29 0 46.5 -17.5t17.5 -46.5v-320q0 -29 -17.5 -46.5t-46.5 -17.5h-320q-29 0 -46.5 17.5t-17.5 46.5v320q0 29 17.5 46.5t46.5 17.5zM640 320h320q29 0 46.5 -17.5t17.5 -46.5v-320q0 -29 -17.5 -46.5t-46.5 -17.5h-320
q-29 0 -46.5 17.5t-17.5 46.5v320q0 29 17.5 46.5t46.5 17.5z" />
    <glyph glyph-name="uniE631" unicode="&#xe631;" 
d="M978 149q9 -11 8 -24.5t-10.5 -23t-22.5 -8.5t-22 11l-417 481q-8 10 -18.5 10t-18.5 -10l-401 -481q-9 -10 -22 -11t-23 8t-11 23t8 24l402 481q26 32 65 32t66 -31z" />
  </font>
</defs>
</svg>
